<svg xmlns="http://www.w3.org/2000/svg" viewBox="0 0 100 100">
  <defs>
    <style>
      .icon { fill: #2C3E50; }
    </style>
  </defs>

  <!-- Simplified S shape for favicon -->
  <circle cx="50" cy="50" r="48" fill="white"/>
  <path class="icon" d="M 50,15 C 70,15 80,25 85,40 C 90,55 85,70 70,80 C 55,90 35,90 25,80 C 15,70 15,55 20,40 C 25,25 35,15 50,15 M 55,35 C 50,30 42,28 35,32 C 28,36 25,45 28,55 C 31,65 40,72 50,73 C 60,74 70,70 75,62 C 80,54 77,44 70,38 C 67,35 62,33 55,35"/>

  <path class="icon" d="M 35,55 C 42,55 46,58 50,65 C 54,72 52,80 45,85 C 38,90 28,90 22,87 C 16,84 13,78 12,71 C 11,64 14,57 21,53 C 26,50 31,51 35,55"/>
</svg>
