<svg xmlns="http://www.w3.org/2000/svg" viewBox="0 0 200 60">
  <defs>
    <style>
      .logo-fill { fill: #2C3E50; }
    </style>
  </defs>

  <!-- Large S shape -->
  <path class="logo-fill" d="M 30,8 C 45,8 55,15 58,25 C 61,35 57,45 45,50 C 33,55 18,53 12,45 C 6,37 8,28 15,22 C 20,17 25,10 30,8 M 32,18 C 28,17 22,19 18,23 C 14,27 13,33 16,38 C 19,43 26,46 32,45 C 38,44 43,40 45,35 C 47,30 45,24 40,21 C 37,19 34,18 32,18"/>

  <!-- Small s shape -->
  <path class="logo-fill" d="M 18,30 C 24,30 28,33 30,38 C 32,43 30,48 25,51 C 20,54 13,53 9,50 C 5,47 4,42 5,38 C 6,34 9,31 13,30 C 15,29 17,29 18,30 M 19,36 C 17,35 14,36 12,38 C 10,40 10,43 12,45 C 14,47 17,48 20,47 C 23,46 25,43 25,41 C 25,38 23,37 21,36 C 20,36 19,36 19,36"/>

  <!-- OCTAVE text positioned to the right -->
  <text class="logo-fill" x="65" y="40" font-family="Arial, sans-serif" font-size="24" font-weight="bold" letter-spacing="1">OCTAVE</text>
</svg>
