<svg xmlns="http://www.w3.org/2000/svg" viewBox="0 0 300 120">
  <defs>
    <style>
      .octave-logo { fill: #2C3E50; }
      .octave-text { fill: #2C3E50; font-family: 'Arial', sans-serif; font-weight: 600; }
    </style>
  </defs>

  <!-- Large S curve -->
  <path class="octave-logo" d="M 85,15 C 115,15 130,25 140,40 C 150,55 145,70 130,80 C 115,90 95,95 75,90 C 55,85 45,75 40,60 C 35,45 40,30 55,20 C 65,12 75,10 85,15 M 95,35 C 90,30 80,28 70,32 C 60,36 55,45 57,55 C 59,65 68,72 78,73 C 88,74 98,70 103,62 C 108,54 105,44 98,38 C 96,36 95,35 95,35"/>

  <!-- Small s curve -->
  <path class="octave-logo" d="M 45,60 C 55,60 60,63 65,70 C 70,77 68,85 60,90 C 52,95 42,95 35,92 C 28,89 24,83 23,76 C 22,69 25,62 32,58 C 37,55 42,56 45,60 M 48,70 C 46,68 42,67 38,69 C 34,71 32,75 33,79 C 34,83 38,86 42,86 C 46,86 50,84 52,80 C 54,76 52,72 49,71 C 49,70 48,70 48,70"/>

  <!-- OCTAVE text -->
  <text class="octave-text" x="110" y="85" font-size="32">OCTAVE</text>
</svg>
